# Blender 4.3.2
# www.blender.org
mtllib killswitch.mtl
o Cube
v -0.844944 0.019922 1.000000
v -1.000000 0.019922 0.844944
v -0.922370 0.019922 0.979285
v -0.979285 0.019922 0.922370
v -0.844944 0.238883 1.000000
v -0.844944 0.439584 0.844944
v -1.000000 0.238883 0.844944
v -0.844944 0.339102 0.979285
v -0.922370 0.238883 0.979285
v -0.919093 0.334861 0.959163
v -0.922370 0.412771 0.844944
v -0.844944 0.412771 0.922370
v -0.919093 0.386726 0.919093
v -0.979285 0.238883 0.922370
v -0.979285 0.339102 0.844944
v -0.959163 0.334861 0.919093
v -1.000000 0.019922 -0.844944
v -0.844944 0.019922 -1.000000
v -0.979285 0.019922 -0.922370
v -0.922370 0.019922 -0.979285
v -0.844944 0.439584 -0.844944
v -0.844944 0.238883 -1.000000
v -1.000000 0.238883 -0.844944
v -0.844944 0.412771 -0.922370
v -0.922370 0.412771 -0.844944
v -0.919093 0.386726 -0.919093
v -0.922370 0.238883 -0.979285
v -0.844944 0.339102 -0.979285
v -0.919093 0.334861 -0.959163
v -0.979285 0.339102 -0.844944
v -0.979285 0.238883 -0.922370
v -0.959163 0.334861 -0.919093
v 1.000000 0.019922 0.844944
v 0.844944 0.019922 1.000000
v 0.979285 0.019922 0.922370
v 0.922370 0.019922 0.979285
v 0.844944 0.439584 0.844944
v 0.844944 0.238883 1.000000
v 1.000000 0.238883 0.844944
v 0.844944 0.412771 0.922370
v 0.922370 0.412771 0.844944
v 0.919093 0.386726 0.919093
v 0.922370 0.238883 0.979285
v 0.844944 0.339102 0.979285
v 0.919093 0.334861 0.959163
v 0.979285 0.339102 0.844944
v 0.979285 0.238883 0.922370
v 0.959163 0.334861 0.919093
v 0.844944 0.019922 -1.000000
v 1.000000 0.019922 -0.844944
v 0.922370 0.019922 -0.979285
v 0.979285 0.019922 -0.922370
v 0.844944 0.439584 -0.844944
v 1.000000 0.238883 -0.844944
v 0.844944 0.238883 -1.000000
v 0.922370 0.412771 -0.844944
v 0.844944 0.412771 -0.922370
v 0.919093 0.386726 -0.919093
v 0.979285 0.238883 -0.922370
v 0.979285 0.339102 -0.844944
v 0.959163 0.334861 -0.919093
v 0.844944 0.339102 -0.979285
v 0.922370 0.238883 -0.979285
v 0.919093 0.334861 -0.959163
vn -0.1303 -0.0000 0.9915
vn -0.9915 -0.0000 0.1303
vn -0.4998 -0.0000 0.8661
vn -0.8661 -0.0000 0.4998
vn -0.1303 0.1014 0.9863
vn -0.1631 0.9730 0.1631
vn -0.9863 0.1014 0.1303
vn -0.1275 0.4119 0.9023
vn -0.4942 0.0951 0.8641
vn -0.4643 0.3692 0.8051
vn -0.5688 0.8095 0.1455
vn -0.1455 0.8095 0.5688
vn -0.5070 0.6971 0.5070
vn -0.8641 0.0951 0.4942
vn -0.9023 0.4119 0.1275
vn -0.8051 0.3692 0.4643
vn -0.9915 -0.0000 -0.1303
vn -0.1303 -0.0000 -0.9915
vn -0.8661 -0.0000 -0.4998
vn -0.4998 -0.0000 -0.8661
vn -0.1631 0.9730 -0.1631
vn -0.1303 0.1014 -0.9863
vn -0.9863 0.1014 -0.1303
vn -0.1455 0.8095 -0.5688
vn -0.5688 0.8095 -0.1455
vn -0.5070 0.6971 -0.5070
vn -0.4942 0.0951 -0.8641
vn -0.1275 0.4119 -0.9023
vn -0.4643 0.3692 -0.8051
vn -0.9023 0.4119 -0.1275
vn -0.8641 0.0951 -0.4942
vn -0.8051 0.3692 -0.4643
vn 0.9915 -0.0000 0.1303
vn 0.1303 -0.0000 0.9915
vn 0.8661 -0.0000 0.4998
vn 0.4998 -0.0000 0.8661
vn 0.1631 0.9730 0.1631
vn 0.1303 0.1014 0.9863
vn 0.9863 0.1014 0.1303
vn 0.1455 0.8095 0.5688
vn 0.5688 0.8095 0.1455
vn 0.5070 0.6971 0.5070
vn 0.4942 0.0951 0.8641
vn 0.1275 0.4119 0.9023
vn 0.4643 0.3692 0.8051
vn 0.9023 0.4119 0.1275
vn 0.8641 0.0951 0.4942
vn 0.8051 0.3692 0.4643
vn 0.1303 -0.0000 -0.9915
vn 0.9915 -0.0000 -0.1303
vn 0.4998 -0.0000 -0.8661
vn 0.8661 -0.0000 -0.4998
vn 0.1631 0.9730 -0.1631
vn 0.9863 0.1014 -0.1303
vn 0.1303 0.1014 -0.9863
vn 0.5688 0.8095 -0.1455
vn 0.1455 0.8095 -0.5688
vn 0.5070 0.6971 -0.5070
vn 0.8641 0.0951 -0.4942
vn 0.9023 0.4119 -0.1275
vn 0.8051 0.3692 -0.4643
vn 0.1275 0.4119 -0.9023
vn 0.4942 0.0951 -0.8641
vn 0.4643 0.3692 -0.8051
vt 0.394382 0.769382
vt 0.605618 0.769382
vt 0.605618 0.980618
vt 0.394382 0.980618
vt 0.394382 0.519382
vt 0.605618 0.519382
vt 0.605618 0.730618
vt 0.394382 0.730618
vt 0.644382 0.519382
vt 0.855618 0.519382
vt 0.855618 0.730618
vt 0.644382 0.730618
vt 0.394382 0.019382
vt 0.605618 0.019382
vt 0.605618 0.230618
vt 0.394382 0.230618
vt 0.394382 0.269382
vt 0.605618 0.269382
vt 0.605618 0.480618
vt 0.394382 0.480618
vt 0.615296 0.980618
vt 0.614887 1.000000
vt 0.605618 1.000000
vt 0.625000 0.980618
vt 0.625000 1.000000
vt 0.875000 0.730618
vt 0.875000 0.739887
vt 0.855618 0.750000
vt 0.625000 0.019382
vt 0.615296 0.019382
vt 0.614887 0.010113
vt 0.625000 0.010113
vt 0.605618 0.009704
vt 0.605618 0.000000
vt 0.614887 0.000000
vt 0.855618 0.500000
vt 0.875000 0.510113
vt 0.875000 0.519382
vt 0.625000 0.269382
vt 0.615296 0.269382
vt 0.614887 0.260113
vt 0.625000 0.250000
vt 0.605618 0.259704
vt 0.605618 0.240296
vt 0.614887 0.239887
vt 0.615296 0.230618
vt 0.625000 0.230618
vt 0.625000 0.239887
vt 0.614887 0.244895
vt 0.644382 0.750000
vt 0.635113 0.750000
vt 0.634704 0.730618
vt 0.625000 0.769382
vt 0.615296 0.769382
vt 0.614887 0.760113
vt 0.625000 0.760113
vt 0.605618 0.759704
vt 0.605618 0.740296
vt 0.614887 0.739887
vt 0.615296 0.730618
vt 0.614887 0.755105
vt 0.634704 0.519382
vt 0.635113 0.500000
vt 0.644382 0.500000
vt 0.615296 0.519382
vt 0.614887 0.510113
vt 0.605618 0.509704
vt 0.605618 0.490296
vt 0.614887 0.489887
vt 0.615296 0.480618
vt 0.625000 0.480618
vt 0.625000 0.489887
vt 0.614887 0.494895
vt 0.394382 1.000000
vt 0.394382 0.000000
vt 0.394382 0.009704
vt 0.394382 0.259704
vt 0.394382 0.240296
vt 0.394382 0.509704
vt 0.394382 0.490296
vt 0.394382 0.759704
vt 0.394382 0.740296
s 1
f 34/1/34 38/2/38 5/3/5 1/4/1
f 50/5/50 54/6/54 39/7/39 33/8/33
f 53/9/53 21/10/21 6/11/6 37/12/37
f 2/13/2 7/14/7 23/15/23 17/16/17
f 18/17/18 22/18/22 55/19/55 49/20/49
f 5/3/5 8/21/8 10/22/10 9/23/9
f 8/21/8 12/24/12 13/25/13 10/22/10
f 6/11/6 11/26/11 13/27/13 12/28/12
f 11/29/11 15/30/15 16/31/16 13/32/13
f 7/14/7 14/33/14 16/31/16 15/30/15
f 14/33/14 9/34/9 10/35/10 16/31/16
f 10/35/10 13/32/13 16/31/16
f 21/10/21 24/36/24 26/37/26 25/38/25
f 24/39/24 28/40/28 29/41/29 26/42/26
f 22/18/22 27/43/27 29/41/29 28/40/28
f 27/43/27 31/44/31 32/45/32 29/41/29
f 23/15/23 30/46/30 32/45/32 31/44/31
f 30/46/30 25/47/25 26/48/26 32/45/32
f 26/48/26 29/49/29 32/45/32
f 37/12/37 40/50/40 42/51/42 41/52/41
f 40/53/40 44/54/44 45/55/45 42/56/42
f 38/2/38 43/57/43 45/55/45 44/54/44
f 43/57/43 47/58/47 48/59/48 45/55/45
f 39/7/39 46/60/46 48/59/48 47/58/47
f 46/60/46 41/52/41 42/51/42 48/59/48
f 42/56/42 45/55/45 48/61/48
f 53/9/53 56/62/56 58/63/58 57/64/57
f 56/62/56 60/65/60 61/66/61 58/63/58
f 54/6/54 59/67/59 61/66/61 60/65/60
f 59/67/59 63/68/63 64/69/64 61/66/61
f 55/19/55 62/70/62 64/69/64 63/68/63
f 62/70/62 57/71/57 58/72/58 64/69/64
f 58/72/58 61/73/61 64/69/64
f 1/4/1 5/3/5 9/23/9 3/74/3
f 3/75/3 9/34/9 14/33/14 4/76/4
f 4/76/4 14/33/14 7/14/7 2/13/2
f 6/11/6 21/10/21 25/38/25 11/26/11
f 11/29/11 25/47/25 30/46/30 15/30/15
f 15/30/15 30/46/30 23/15/23 7/14/7
f 22/18/22 18/17/18 20/77/20 27/43/27
f 27/43/27 20/77/20 19/78/19 31/44/31
f 31/44/31 19/78/19 17/16/17 23/15/23
f 21/10/21 53/9/53 57/64/57 24/36/24
f 24/39/24 57/71/57 62/70/62 28/40/28
f 28/40/28 62/70/62 55/19/55 22/18/22
f 54/6/54 50/5/50 52/79/52 59/67/59
f 59/67/59 52/79/52 51/80/51 63/68/63
f 63/68/63 51/80/51 49/20/49 55/19/55
f 53/9/53 37/12/37 41/52/41 56/62/56
f 56/62/56 41/52/41 46/60/46 60/65/60
f 60/65/60 46/60/46 39/7/39 54/6/54
f 38/2/38 34/1/34 36/81/36 43/57/43
f 43/57/43 36/81/36 35/82/35 47/58/47
f 47/58/47 35/82/35 33/8/33 39/7/39
f 37/12/37 6/11/6 12/28/12 40/50/40
f 40/53/40 12/24/12 8/21/8 44/54/44
f 44/54/44 8/21/8 5/3/5 38/2/38
