# Blender 4.3.2
# www.blender.org
mtllib screenrenderers.mtl
o Screens
v -1.266945 1.149497 -0.842325
v -1.272008 1.155830 -0.836040
v -0.674897 1.149494 -1.344226
v -0.669834 1.155826 -1.346526
v -0.669834 1.559870 -1.219445
v -0.674897 1.566202 -1.213161
v -1.272008 1.559870 -0.708960
v -1.266945 1.566202 -0.711261
v 0.681476 1.147531 -1.357115
v 0.676412 1.153864 -1.359416
v 1.277016 1.147535 -0.852253
v 1.282080 1.153867 -0.845969
v 1.282080 1.568010 -0.715711
v 1.277016 1.574342 -0.718011
v 0.676412 1.568010 -1.229157
v 0.681476 1.574342 -1.222873
v -0.583894 1.142848 -1.395902
v -0.590532 1.149180 -1.393910
v 0.583894 1.142848 -1.395902
v 0.590532 1.149180 -1.393910
v 0.590532 1.572307 -1.260826
v 0.583894 1.578639 -1.258835
v -0.590532 1.572307 -1.260826
v -0.583894 1.578639 -1.258835
vn -0.6288 -0.2333 0.7417
vn 0.6288 -0.2333 0.7417
vn -0.0000 -0.3000 0.9539
vt 0.989763 0.009023
vt 0.993103 0.013199
vt 0.993103 0.286359
vt 0.989763 0.290535
vt 0.596958 0.290535
vt 0.593617 0.286359
vt 0.593617 0.013197
vt 0.596958 0.009020
vt 0.573031 0.008505
vt 0.577842 0.014523
vt 0.577842 0.398516
vt 0.573031 0.404534
vt 0.010363 0.404534
vt 0.005551 0.398516
vt 0.005551 0.014527
vt 0.010363 0.008508
vt 0.993686 0.629222
vt 0.999292 0.634569
vt 0.999292 0.991877
vt 0.993686 0.997224
vt 0.007552 0.997224
vt 0.001946 0.991877
vt 0.001946 0.634569
vt 0.007552 0.629222
s 0
f 11/1/1 12/2/1 13/3/1 14/4/1 16/5/1 15/6/1 10/7/1 9/8/1
f 3/9/2 4/10/2 5/11/2 6/12/2 8/13/2 7/14/2 2/15/2 1/16/2
f 19/17/3 20/18/3 21/19/3 22/20/3 24/21/3 23/22/3 18/23/3 17/24/3
